<?xml version="1.0" encoding="utf-8"?>
<!-- Generator: Adobe Illustrator 16.0.0, SVG Export Plug-In . SVG Version: 6.00 Build 0)  -->
<!DOCTYPE svg PUBLIC "-//W3C//DTD SVG 1.1//EN" "http://www.w3.org/Graphics/SVG/1.1/DTD/svg11.dtd">
<svg version="1.1" id="Layer_1" xmlns="http://www.w3.org/2000/svg" xmlns:xlink="http://www.w3.org/1999/xlink" x="0px" y="0px"
	 width="266.667px" height="352.064px" viewBox="0 0 266.667 352.064" enable-background="new 0 0 266.667 352.064"
	 xml:space="preserve">
<g>
	<g>
		<g>
			<path fill="none" stroke="#B7BCB9" stroke-width="3" d="M177.215,117.726h-3.811v-1.06h-17.737v1.06H96.542
				c-8.568,0-15.513,6.927-15.513,15.472v16.916H80.14v10.727h0.889v11.551H80.14v8.252h0.889v11.346H80.14v8.252h0.889v136.354
				c0,8.544,6.945,15.471,15.513,15.471h80.673c8.568,0,15.514-6.927,15.514-15.471V133.197
				C192.729,124.652,185.784,117.726,177.215,117.726z"/>
		</g>
	</g>
	<path fill-rule="evenodd" clip-rule="evenodd" fill="none" stroke="#B7BCB9" stroke-width="3" d="M88.489,147.402h95.892
		c0.41,0,0.742,0.33,0.742,0.738v169.326c0,0.407-0.332,0.739-0.742,0.739H88.489c-0.41,0-0.741-0.332-0.741-0.739V148.141
		C87.748,147.732,88.079,147.402,88.489,147.402z"/>
	<path fill-rule="evenodd" clip-rule="evenodd" fill="none" stroke="#B7BCB9" stroke-width="3" d="M128.354,132.977h16.161
		c1.029,0,1.865,0.831,1.865,1.856s-0.836,1.857-1.865,1.857h-16.161c-1.029,0-1.864-0.832-1.864-1.857
		S127.325,132.977,128.354,132.977z"/>
	<path fill-rule="evenodd" clip-rule="evenodd" fill="none" stroke="#B7BCB9" stroke-width="3" d="M136.435,323.849
		c5.664,0,10.255,4.571,10.255,10.21c0,5.64-4.591,10.212-10.255,10.212s-10.255-4.572-10.255-10.212
		C126.18,328.42,130.771,323.849,136.435,323.849z"/>
</g>
</svg>
