<svg version="1.1" id="btle-phone" xmlns="http://www.w3.org/2000/svg" xmlns:xlink="http://www.w3.org/1999/xlink" x="0px" viewBox="20.167 11.055 116.667 242.333"
    enable-background="new 20.167 11.055 116.667 242.333" xml:space="preserve">
    <g>
        <g>
            <g>
                <path fill="none" stroke="#777" stroke-width="2.5" d="M119.475,17.126h-3.811v-1.06H97.927v1.06H38.802
                c-8.568,0-15.513,6.927-15.513,15.472v16.916H22.4V60.24h0.889v11.551H22.4v8.252h0.889v11.346H22.4v8.253h0.889v136.354
                c0,8.544,6.945,15.471,15.513,15.471h80.673c8.568,0,15.515-6.927,15.515-15.471V32.597
                C134.988,24.052,128.043,17.126,119.475,17.126z"/>
            </g>
        </g>
        <path fill="none" stroke="#777" stroke-width="2.5" d="M30.748,46.802h95.892c0.41,0,0.742,0.33,0.742,0.738v169.326
        c0,0.407-0.332,0.739-0.742,0.739H30.748c-0.41,0-0.741-0.332-0.741-0.739V47.541C30.007,47.133,30.338,46.802,30.748,46.802z"/>
        <path fill="none" stroke="#777" stroke-width="2.5" d="M70.613,32.377h16.16c1.03,0,1.865,0.831,1.865,1.856
        c0,1.024-0.835,1.856-1.865,1.856h-16.16c-1.029,0-1.864-0.832-1.864-1.856C68.749,33.208,69.584,32.377,70.613,32.377z"/>
        <path fill="none" stroke="#777" stroke-width="2.5" d="M78.694,223.249c5.663,0,10.255,4.571,10.255,10.21
        c0,5.641-4.592,10.212-10.255,10.212c-5.664,0-10.255-4.571-10.255-10.212C68.439,227.82,73.03,223.249,78.694,223.249z"/>
    </g>
    <g>
        <path fill="none" stroke="#777" stroke-width="2.5" d="M-1021.779-32.619c0-8.591-6.988-15.58-15.579-15.58h-441.75
        c-8.59,0-15.579,6.988-15.579,15.58v294.576c0,0.02,0.009,5.181,0.004,5.181l472.907-0.304c-0.01,0-0.003-4.721-0.003-4.877
        V-32.619z"/>
        <path fill="none" stroke="#777" stroke-width="2.5" d="M-1478.472-28.163h440.482v275.268h-440.481L-1478.472-28.163
        L-1478.472-28.163z"/>
        <path fill="none" stroke="#777" stroke-width="2.5" d="M-1259.629,267.137h-0.966h-38.161c0,1.988,2.114,6.424,6.396,6.424
        c3.812,0,26.751,0,31.764,0c0.62,0,0.966,0,0.966,0c5.389,0,31.686,0,35.524,0c4.282,0,6.4-4.436,6.4-6.424H-1259.629z"/>
        <g>
            <g>
                <defs>
                    <path id="SVGID_2_" d="M-1260.653-37.181c0,1.336,1.08,2.421,2.416,2.421c1.345,0,2.428-1.085,2.428-2.421
                    c0-1.332-1.083-2.418-2.428-2.418C-1259.573-39.599-1260.653-38.512-1260.653-37.181"/>
                </defs>
                <clipPath id="SVGID_3_">
                    <use xlink:href="#SVGID_2_"  overflow="visible"/>
                </clipPath>

                <rect x="-1260.653" y="-39.599" clip-path="url(#SVGID_3_)" fill="none" stroke="#777" stroke-width="2.5" width="4.844" height="4.839"/>
            </g>
            <g>
                <path id="SVGID_1_" fill="none" stroke="#777" stroke-width="2.5" d="M-1260.653-37.181c0,1.336,1.08,2.421,2.416,2.421
                c1.345,0,2.428-1.085,2.428-2.421c0-1.332-1.083-2.418-2.428-2.418C-1259.573-39.599-1260.653-38.512-1260.653-37.181"/>
            </g>
        </g>
        <path fill="none" stroke="#777" stroke-width="2.5" d="M-1548.343,267.75l0.611-0.612h579l0.612,0.612v9.174
        c0,0-6.763,4.615-12.541,5.812c-5.778,1.199-9.802,1.836-13.152,1.836s-529.756,0-529.756,0s-8.93-0.923-10.093-1.224
        s-7.384-2.203-9.177-3.06c-1.791-0.854-5.505-3.059-5.505-3.059v-9.48H-1548.343z"/>
    </g>
    <circle fill="none" stroke="#777" stroke-width="3" cx="79" cy="25.443" r="1.262"/>
    <circle fill="none" stroke="#777" stroke-width="3" cx="79" cy="125.443" r="1em" id="btle-knock" animateType="CSS"/>
</svg>