<?xml version="1.0" encoding="utf-8"?>
<!-- Generator: Adobe Illustrator 16.0.0, SVG Export Plug-In . SVG Version: 6.00 Build 0)  -->
<!DOCTYPE svg PUBLIC "-//W3C//DTD SVG 1.1//EN" "http://www.w3.org/Graphics/SVG/1.1/DTD/svg11.dtd">
<svg version="1.1" id="Layer_1" xmlns="http://www.w3.org/2000/svg" xmlns:xlink="http://www.w3.org/1999/xlink" x="0px" y="0px"
	 width="156px" height="268.443px" viewBox="0 0 156 268.443" enable-background="new 0 0 156 268.443" xml:space="preserve">
<g>
	<g>
		<g>
			<path fill="none" stroke="#B7BCB9" stroke-width="3" d="M119.475,17.126h-3.811v-1.06H97.927v1.06H38.802
				c-8.568,0-15.513,6.927-15.513,15.472v16.916h-0.889V60.24h0.889v11.551h-0.889v8.252h0.889v11.346h-0.889v8.252h0.889v136.354
				c0,8.544,6.945,15.471,15.513,15.471h80.673c8.568,0,15.514-6.927,15.514-15.471V32.598
				C134.988,24.053,128.043,17.126,119.475,17.126z"/>
		</g>
	</g>
	<path fill-rule="evenodd" clip-rule="evenodd" fill="none" stroke="#B7BCB9" stroke-width="3" d="M30.748,46.803h95.892
		c0.41,0,0.742,0.33,0.742,0.738v169.326c0,0.407-0.332,0.739-0.742,0.739H30.748c-0.41,0-0.741-0.332-0.741-0.739V47.541
		C30.007,47.133,30.338,46.803,30.748,46.803z"/>
	<path fill-rule="evenodd" clip-rule="evenodd" fill="none" stroke="#B7BCB9" stroke-width="3" d="M70.613,32.377h16.161
		c1.03,0,1.865,0.831,1.865,1.856s-0.835,1.857-1.865,1.857H70.613c-1.029,0-1.864-0.832-1.864-1.857S69.584,32.377,70.613,32.377z"
		/>
	<path fill-rule="evenodd" clip-rule="evenodd" fill="none" stroke="#B7BCB9" stroke-width="3" d="M78.694,223.249
		c5.664,0,10.255,4.571,10.255,10.21c0,5.64-4.591,10.212-10.255,10.212s-10.255-4.572-10.255-10.212
		C68.439,227.82,73.03,223.249,78.694,223.249z"/>
</g>
</svg>
